<svg width="805.85px" height="150.2px" xmlns="http://www.w3.org/2000/svg" viewBox="-152.925 -0.09999999999999432 805.85 150.2" style="background: rgba(0, 0, 0, 0);" preserveAspectRatio="xMidYMid"><defs><filter id="editing-raise" x="-100%" y="-100%" width="300%" height="300%"><feFlood flood-color="#ccc" result="flood-surface"></feFlood><feFlood flood-color="#777" result="flood-extrude"></feFlood><feMorphology operator="erode" in="SourceAlpha" radius="1" result="erode"></feMorphology><feConvolveMatrix in="erode" result="shadow" order="11,8" divisor="1" kernelMatrix="0 0 0 1 1 1 1 1 0 0 0 0 0 1 0 0 0 0 0 1 0 0 0 0 1 0 0 0 0 0 1 0 0 0 0 1 0 0 0 0 0 1 0 0 0 0 1 0 0 0 0 0 1 0 0 0 0 0 1 0 0 0 1 0 0 0 0 0 0 1 1 0 1 1 0 0 0 0 0 0 0 0 1 0 0 0 0 0"></feConvolveMatrix><feOffset dx="0" dy="4" in="shadow" result="offset"></feOffset><feGaussianBlur in="offset" stdDeviation="0.2" result="blur"></feGaussianBlur><feComposite operator="in" in="flood-extrude" in2="blur" result="extrude"></feComposite><feMorphology operator="erode" in="SourceAlpha" radius="1" result="erode2"></feMorphology><feConvolveMatrix in="erode2" result="out" order="4,4" divisor="1" kernelMatrix="0 1 1 0 1 0 0 1 1 0 0 1 0 1 1 0 "></feConvolveMatrix><feComposite operator="in" in="flood-surface" in2="out" result="text"></feComposite><feMerge><feMergeNode in="extrude"></feMergeNode><feMergeNode in="text"></feMergeNode></feMerge></filter></defs><g filter="url(#editing-raise)"><g transform="translate(-40.45003271102905, 94.4900016784668)"><path d="M17.02-13.85L14.46-14.70L14.46-14.70Q11.77-15.62 9.58-16.56L9.58-16.56L9.58-16.56Q7.38-17.51 5.79-18.85L5.79-18.85L5.79-18.85Q4.21-20.19 3.32-22.05L3.32-22.05L3.32-22.05Q2.44-23.91 2.44-26.60L2.44-26.60L2.44-26.60Q2.44-31.78 6.44-34.89L6.44-34.89L6.44-34.89Q10.43-38.00 17.63-38.00L17.63-38.00L17.63-38.00Q20.25-38.00 22.51-37.64L22.51-37.64L22.51-37.64Q24.77-37.27 26.38-36.51L26.38-36.51L26.38-36.51Q28.00-35.75 28.91-34.56L28.91-34.56L28.91-34.56Q29.83-33.37 29.83-31.78L29.83-31.78L29.83-31.78Q29.83-30.20 29.10-29.07L29.10-29.07L29.10-29.07Q28.36-27.94 27.33-27.14L27.33-27.14L27.33-27.14Q25.99-28.00 23.73-28.64L23.73-28.64L23.73-28.64Q21.47-29.28 18.79-29.28L18.79-29.28L18.79-29.28Q16.04-29.28 14.76-28.52L14.76-28.52L14.76-28.52Q13.48-27.75 13.48-26.60L13.48-26.60L13.48-26.60Q13.48-25.68 14.27-25.10L14.27-25.10L14.27-25.10Q15.07-24.52 16.65-24.03L16.65-24.03L19.89-23.00L19.89-23.00Q25.62-21.17 28.70-18.33L28.70-18.33L28.70-18.33Q31.78-15.49 31.78-10.61L31.78-10.61L31.78-10.61Q31.78-5.43 27.69-2.23L27.69-2.23L27.69-2.23Q23.61 0.98 15.68 0.98L15.68 0.98L15.68 0.98Q12.87 0.98 10.46 0.52L10.46 0.52L10.46 0.52Q8.05 0.06 6.25-0.82L6.25-0.82L6.25-0.82Q4.45-1.71 3.45-3.02L3.45-3.02L3.45-3.02Q2.44-4.33 2.44-6.04L2.44-6.04L2.44-6.04Q2.44-7.81 3.48-9.06L3.48-9.06L3.48-9.06Q4.51-10.31 5.73-10.98L5.73-10.98L5.73-10.98Q7.44-9.64 9.91-8.66L9.91-8.66L9.91-8.66Q12.38-7.69 15.31-7.69L15.31-7.69L15.31-7.69Q18.30-7.69 19.52-8.60L19.52-8.60L19.52-8.60Q20.74-9.52 20.74-10.74L20.74-10.74L20.74-10.74Q20.74-11.96 19.76-12.60L19.76-12.60L19.76-12.60Q18.79-13.24 17.02-13.85L17.02-13.85ZM48.25-32.45L48.25-0.24L48.25-0.24Q47.58-0.06 46.15 0.12L46.15 0.12L46.15 0.12Q44.71 0.30 43.31 0.30L43.31 0.30L43.31 0.30Q41.91 0.30 40.84 0.09L40.84 0.09L40.84 0.09Q39.77-0.12 39.04-0.67L39.04-0.67L39.04-0.67Q38.31-1.22 37.94-2.20L37.94-2.20L37.94-2.20Q37.58-3.17 37.58-4.76L37.58-4.76L37.58-36.97L37.58-36.97Q38.25-37.09 39.71-37.30L39.71-37.30L39.71-37.30Q41.17-37.52 42.52-37.52L42.52-37.52L42.52-37.52Q43.92-37.52 44.99-37.30L44.99-37.30L44.99-37.30Q46.05-37.09 46.79-36.54L46.79-36.54L46.79-36.54Q47.52-35.99 47.88-35.01L47.88-35.01L47.88-35.01Q48.25-34.04 48.25-32.45L48.25-32.45ZM81.74-9.09L81.74-9.09L81.74-9.09Q80.95-8.42 79.70-8.02L79.70-8.02L79.70-8.02Q78.45-7.63 76.80-7.63L76.80-7.63L76.80-7.63Q74.60-7.63 73.17-8.17L73.17-8.17L73.17-8.17Q71.74-8.72 71.31-10.06L71.31-10.06L71.31-10.06Q69.60-15.43 68.50-18.76L68.50-18.76L68.50-18.76Q67.41-22.08 66.79-24.58L66.79-24.58L66.49-24.58L66.49-24.58Q66.31-20.98 66.22-18.03L66.22-18.03L66.22-18.03Q66.12-15.07 66.09-12.26L66.09-12.26L66.09-12.26Q66.06-9.46 65.97-6.59L65.97-6.59L65.97-6.59Q65.88-3.72 65.70-0.24L65.70-0.24L65.70-0.24Q64.90 0.06 63.62 0.27L63.62 0.27L63.62 0.27Q62.34 0.49 61.06 0.49L61.06 0.49L61.06 0.49Q58.38 0.49 56.88-0.37L56.88-0.37L56.88-0.37Q55.39-1.22 55.39-3.48L55.39-3.48L57.16-34.59L57.16-34.59Q57.64-35.38 59.29-36.30L59.29-36.30L59.29-36.30Q60.94-37.21 63.93-37.21L63.93-37.21L63.93-37.21Q67.16-37.21 68.99-36.20L68.99-36.20L68.99-36.20Q70.82-35.20 71.67-32.94L71.67-32.94L71.67-32.94Q72.22-31.48 72.86-29.59L72.86-29.59L72.86-29.59Q73.50-27.69 74.15-25.68L74.15-25.68L74.15-25.68Q74.79-23.67 75.40-21.69L75.40-21.69L75.40-21.69Q76.01-19.70 76.49-18.12L76.49-18.12L76.80-18.12L76.80-18.12Q78.26-23.24 79.73-28.03L79.73-28.03L79.73-28.03Q81.19-32.82 82.41-36.05L82.41-36.05L82.41-36.05Q83.33-36.54 84.76-36.87L84.76-36.87L84.76-36.87Q86.19-37.21 87.96-37.21L87.96-37.21L87.96-37.21Q90.95-37.21 92.84-36.33L92.84-36.33L92.84-36.33Q94.73-35.44 95.04-33.79L95.04-33.79L95.04-33.79Q95.28-32.57 95.56-30.04L95.56-30.04L95.56-30.04Q95.83-27.51 96.14-24.34L96.14-24.34L96.14-24.34Q96.44-21.17 96.75-17.63L96.75-17.63L96.75-17.63Q97.05-14.09 97.33-10.83L97.33-10.83L97.33-10.83Q97.60-7.56 97.78-4.85L97.78-4.85L97.78-4.85Q97.97-2.13 98.03-0.67L98.03-0.67L98.03-0.67Q96.99-0.06 95.86 0.21L95.86 0.21L95.86 0.21Q94.73 0.49 92.96 0.49L92.96 0.49L92.96 0.49Q90.65 0.49 89.06-0.30L89.06-0.30L89.06-0.30Q87.47-1.10 87.35-3.42L87.35-3.42L87.35-3.42Q86.99-10.06 86.89-15.37L86.89-15.37L86.89-15.37Q86.80-20.68 86.62-24.28L86.62-24.28L86.31-24.28L86.31-24.28Q85.70-21.90 84.55-18.30L84.55-18.30L84.55-18.30Q83.39-14.70 81.74-9.09ZM137.56-32.45L137.56-13.66L137.56-13.66Q137.56-10.37 136.43-7.66L136.43-7.66L136.43-7.66Q135.30-4.94 133.16-3.02L133.16-3.02L133.16-3.02Q131.03-1.10 127.98-0.06L127.98-0.06L127.98-0.06Q124.93 0.98 121.08 0.98L121.08 0.98L121.08 0.98Q117.24 0.98 114.19-0.06L114.19-0.06L114.19-0.06Q111.14-1.10 109.01-3.02L109.01-3.02L109.01-3.02Q106.87-4.94 105.74-7.66L105.74-7.66L105.74-7.66Q104.61-10.37 104.61-13.66L104.61-13.66L104.61-36.97L104.61-36.97Q105.29-37.09 106.75-37.30L106.75-37.30L106.75-37.30Q108.21-37.52 109.56-37.52L109.56-37.52L109.56-37.52Q110.96-37.52 112.03-37.30L112.03-37.30L112.03-37.30Q113.09-37.09 113.83-36.54L113.83-36.54L113.83-36.54Q114.56-35.99 114.92-35.01L114.92-35.01L114.92-35.01Q115.29-34.04 115.29-32.45L115.29-32.45L115.29-13.85L115.29-13.85Q115.29-10.92 116.91-9.27L116.91-9.27L116.91-9.27Q118.52-7.63 121.08-7.63L121.08-7.63L121.08-7.63Q123.71-7.63 125.29-9.27L125.29-9.27L125.29-9.27Q126.88-10.92 126.88-13.85L126.88-13.85L126.88-36.97L126.88-36.97Q127.55-37.09 129.01-37.30L129.01-37.30L129.01-37.30Q130.48-37.52 131.82-37.52L131.82-37.52L131.82-37.52Q133.22-37.52 134.29-37.30L134.29-37.30L134.29-37.30Q135.36-37.09 136.09-36.54L136.09-36.54L136.09-36.54Q136.82-35.99 137.19-35.01L137.19-35.01L137.19-35.01Q137.56-34.04 137.56-32.45L137.56-32.45ZM153.17-35.87L153.17-35.87L153.17-35.87Q154.21-36.48 156.31-37.03L156.31-37.03L156.31-37.03Q158.42-37.58 160.55-37.58L160.55-37.58L160.55-37.58Q163.60-37.58 165.95-36.69L165.95-36.69L165.95-36.69Q168.30-35.81 168.97-33.92L168.97-33.92L168.97-33.92Q170.07-30.74 171.35-26.54L171.35-26.54L171.35-26.54Q172.63-22.33 173.91-17.84L173.91-17.84L173.91-17.84Q175.19-13.36 176.41-9.00L176.41-9.00L176.41-9.00Q177.63-4.64 178.55-1.28L178.55-1.28L178.55-1.28Q177.81-0.43 176.35 0.09L176.35 0.09L176.35 0.09Q174.89 0.61 172.87 0.61L172.87 0.61L172.87 0.61Q171.41 0.61 170.40 0.37L170.40 0.37L170.40 0.37Q169.40 0.12 168.76-0.37L168.76-0.37L168.76-0.37Q168.12-0.85 167.72-1.65L167.72-1.65L167.72-1.65Q167.32-2.44 167.02-3.48L167.02-3.48L165.92-7.69L154.88-7.69L154.88-7.69Q154.39-5.86 153.90-3.90L153.90-3.90L153.90-3.90Q153.41-1.95 152.93-0.12L152.93-0.12L152.93-0.12Q152.07 0.18 151.13 0.40L151.13 0.40L151.13 0.40Q150.18 0.61 148.84 0.61L148.84 0.61L148.84 0.61Q145.73 0.61 144.23-0.46L144.23-0.46L144.23-0.46Q142.74-1.52 142.74-3.42L142.74-3.42L142.74-3.42Q142.74-4.27 142.98-5.12L142.98-5.12L142.98-5.12Q143.23-5.98 143.53-7.14L143.53-7.14L143.53-7.14Q143.96-8.78 144.72-11.22L144.72-11.22L144.72-11.22Q145.48-13.66 146.40-16.50L146.40-16.50L146.40-16.50Q147.31-19.34 148.35-22.33L148.35-22.33L148.35-22.33Q149.39-25.31 150.30-27.97L150.30-27.97L150.30-27.97Q151.22-30.62 151.98-32.70L151.98-32.70L151.98-32.70Q152.74-34.77 153.17-35.87ZM160.86-28.00L160.49-28.00L160.49-28.00Q159.64-25.44 158.57-22.30L158.57-22.30L158.57-22.30Q157.50-19.15 156.65-15.92L156.65-15.92L164.21-15.92L164.21-15.92Q163.36-19.21 162.47-22.36L162.47-22.36L162.47-22.36Q161.59-25.50 160.86-28.00L160.86-28.00ZM205.57 0.18L189.22 0.18L189.22 0.18Q186.60 0.18 185.07-1.34L185.07-1.34L185.07-1.34Q183.55-2.87 183.55-5.49L183.55-5.49L183.55-37.03L183.55-37.03Q184.22-37.15 185.68-37.36L185.68-37.36L185.68-37.36Q187.15-37.58 188.49-37.58L188.49-37.58L188.49-37.58Q189.89-37.58 190.96-37.36L190.96-37.36L190.96-37.36Q192.03-37.15 192.76-36.60L192.76-36.60L192.76-36.60Q193.49-36.05 193.86-35.07L193.86-35.07L193.86-35.07Q194.22-34.10 194.22-32.51L194.22-32.51L194.22-8.42L208.19-8.42L208.19-8.42Q208.62-7.75 208.99-6.62L208.99-6.62L208.99-6.62Q209.35-5.49 209.35-4.27L209.35-4.27L209.35-4.27Q209.35-1.83 208.31-0.82L208.31-0.82L208.31-0.82Q207.28 0.18 205.57 0.18L205.57 0.18ZM222.28-28.43L213.13-28.43L213.13-28.43Q212.71-29.10 212.34-30.26L212.34-30.26L212.34-30.26Q211.98-31.41 211.98-32.70L211.98-32.70L211.98-32.70Q211.98-35.07 213.04-36.11L213.04-36.11L213.04-36.11Q214.11-37.15 215.82-37.15L215.82-37.15L242.41-37.15L242.41-37.15Q242.84-36.48 243.21-35.32L243.21-35.32L243.21-35.32Q243.57-34.16 243.57-32.88L243.57-32.88L243.57-32.88Q243.57-30.50 242.51-29.46L242.51-29.46L242.51-29.46Q241.44-28.43 239.73-28.43L239.73-28.43L232.96-28.43L232.96-0.24L232.96-0.24Q232.29-0.06 230.85 0.12L230.85 0.12L230.85 0.12Q229.42 0.30 228.02 0.30L228.02 0.30L228.02 0.30Q226.62 0.30 225.55 0.09L225.55 0.09L225.55 0.09Q224.48-0.12 223.75-0.67L223.75-0.67L223.75-0.67Q223.02-1.22 222.65-2.20L222.65-2.20L222.65-2.20Q222.28-3.17 222.28-4.76L222.28-4.76L222.28-28.43ZM248.76-5.49L248.76-31.29L248.76-31.29Q248.76-33.92 250.28-35.44L250.28-35.44L250.28-35.44Q251.81-36.97 254.43-36.97L254.43-36.97L274.56-36.97L274.56-36.97Q274.99-36.30 275.32-35.20L275.32-35.20L275.32-35.20Q275.66-34.10 275.66-32.88L275.66-32.88L275.66-32.88Q275.66-30.56 274.65-29.59L274.65-29.59L274.65-29.59Q273.65-28.61 272.00-28.61L272.00-28.61L259.13-28.61L259.13-22.94L272.85-22.94L272.85-22.94Q273.28-22.27 273.62-21.20L273.62-21.20L273.62-21.20Q273.95-20.13 273.95-18.91L273.95-18.91L273.95-18.91Q273.95-16.59 272.98-15.62L272.98-15.62L272.98-15.62Q272.00-14.64 270.35-14.64L270.35-14.64L259.13-14.64L259.13-8.23L274.81-8.23L274.81-8.23Q275.23-7.56 275.57-6.47L275.57-6.47L275.57-6.47Q275.90-5.37 275.90-4.15L275.90-4.15L275.90-4.15Q275.90-1.83 274.90-0.82L274.90-0.82L274.90-0.82Q273.89 0.18 272.24 0.18L272.24 0.18L254.43 0.18L254.43 0.18Q251.81 0.18 250.28-1.34L250.28-1.34L250.28-1.34Q248.76-2.87 248.76-5.49L248.76-5.49ZM292.80-29.16L292.80-7.93L292.80-7.93Q293.47-7.81 294.45-7.72L294.45-7.72L294.45-7.72Q295.42-7.63 296.28-7.63L296.28-7.63L296.28-7.63Q298.35-7.63 300.09-8.23L300.09-8.23L300.09-8.23Q301.83-8.85 303.08-10.13L303.08-10.13L303.08-10.13Q304.33-11.41 305.03-13.45L305.03-13.45L305.03-13.45Q305.73-15.49 305.73-18.36L305.73-18.36L305.73-18.36Q305.73-23.85 303.17-26.63L303.17-26.63L303.17-26.63Q300.61-29.40 296.34-29.40L296.34-29.40L296.34-29.40Q295.48-29.40 294.60-29.34L294.60-29.34L294.60-29.34Q293.72-29.28 292.80-29.16L292.80-29.16ZM296.22 0.98L296.22 0.98L296.22 0.98Q295.18 0.98 293.84 0.92L293.84 0.92L293.84 0.92Q292.50 0.85 291.06 0.67L291.06 0.67L291.06 0.67Q289.63 0.49 288.19 0.21L288.19 0.21L288.19 0.21Q286.76-0.06 285.54-0.55L285.54-0.55L285.54-0.55Q282.19-1.83 282.19-5.00L282.19-5.00L282.19-33.49L282.19-33.49Q282.19-34.77 282.89-35.47L282.89-35.47L282.89-35.47Q283.59-36.17 284.81-36.60L284.81-36.60L284.81-36.60Q287.43-37.45 290.36-37.73L290.36-37.73L290.36-37.73Q293.29-38.00 295.61-38.00L295.61-38.00L295.61-38.00Q300.36-38.00 304.24-36.84L304.24-36.84L304.24-36.84Q308.11-35.69 310.89-33.28L310.89-33.28L310.89-33.28Q313.66-30.87 315.19-27.21L315.19-27.21L315.19-27.21Q316.71-23.55 316.71-18.54L316.71-18.54L316.71-18.54Q316.71-13.66 315.25-10.03L315.25-10.03L315.25-10.03Q313.78-6.41 311.07-3.93L311.07-3.93L311.07-3.93Q308.36-1.46 304.57-0.24L304.57-0.24L304.57-0.24Q300.79 0.98 296.22 0.98ZM342.45-28.43L333.30-28.43L333.30-28.43Q332.88-29.10 332.51-30.26L332.51-30.26L332.51-30.26Q332.14-31.41 332.14-32.70L332.14-32.70L332.14-32.70Q332.14-35.07 333.21-36.11L333.21-36.11L333.21-36.11Q334.28-37.15 335.99-37.15L335.99-37.15L362.58-37.15L362.58-37.15Q363.01-36.48 363.38-35.32L363.38-35.32L363.38-35.32Q363.74-34.16 363.74-32.88L363.74-32.88L363.74-32.88Q363.74-30.50 362.68-29.46L362.68-29.46L362.68-29.46Q361.61-28.43 359.90-28.43L359.90-28.43L353.13-28.43L353.13-0.24L353.13-0.24Q352.46-0.06 351.02 0.12L351.02 0.12L351.02 0.12Q349.59 0.30 348.19 0.30L348.19 0.30L348.19 0.30Q346.78 0.30 345.72 0.09L345.72 0.09L345.72 0.09Q344.65-0.12 343.92-0.67L343.92-0.67L343.92-0.67Q343.19-1.22 342.82-2.20L342.82-2.20L342.82-2.20Q342.45-3.17 342.45-4.76L342.45-4.76L342.45-28.43ZM382.77-11.96L379.54-11.96L379.54-0.24L379.54-0.24Q378.87-0.06 377.44 0.12L377.44 0.12L377.44 0.12Q376.00 0.30 374.60 0.30L374.60 0.30L374.60 0.30Q373.20 0.30 372.13 0.09L372.13 0.09L372.13 0.09Q371.06-0.12 370.36-0.67L370.36-0.67L370.36-0.67Q369.66-1.22 369.29-2.20L369.29-2.20L369.29-2.20Q368.93-3.17 368.93-4.76L368.93-4.76L368.93-33.49L368.93-33.49Q368.93-34.77 369.63-35.47L369.63-35.47L369.63-35.47Q370.33-36.17 371.55-36.60L371.55-36.60L371.55-36.60Q373.62-37.33 376.37-37.67L376.37-37.67L376.37-37.67Q379.11-38.00 382.23-38.00L382.23-38.00L382.23-38.00Q390.64-38.00 394.91-34.46L394.91-34.46L394.91-34.46Q399.18-30.93 399.18-24.89L399.18-24.89L399.18-24.89Q399.18-21.11 397.23-18.42L397.23-18.42L397.23-18.42Q395.28-15.74 392.60-14.27L392.60-14.27L392.60-14.27Q394.79-11.29 396.93-8.66L396.93-8.66L396.93-8.66Q399.06-6.04 400.28-3.90L400.28-3.90L400.28-3.90Q399.67-1.77 398.06-0.64L398.06-0.64L398.06-0.64Q396.44 0.49 394.43 0.49L394.43 0.49L394.43 0.49Q393.08 0.49 392.11 0.18L392.11 0.18L392.11 0.18Q391.13-0.12 390.40-0.67L390.40-0.67L390.40-0.67Q389.67-1.22 389.06-2.01L389.06-2.01L389.06-2.01Q388.45-2.81 387.90-3.72L387.90-3.72L382.77-11.96ZM379.48-20.07L383.38-20.07L383.38-20.07Q385.70-20.07 387.04-21.26L387.04-21.26L387.04-21.26Q388.39-22.45 388.39-24.77L388.39-24.77L388.39-24.77Q388.39-27.08 386.89-28.27L386.89-28.27L386.89-28.27Q385.40-29.46 382.16-29.46L382.16-29.46L382.16-29.46Q381.25-29.46 380.70-29.40L380.70-29.40L380.70-29.40Q380.15-29.34 379.48-29.22L379.48-29.22L379.48-20.07ZM413.95-35.87L413.95-35.87L413.95-35.87Q414.98-36.48 417.09-37.03L417.09-37.03L417.09-37.03Q419.19-37.58 421.33-37.58L421.33-37.58L421.33-37.58Q424.38-37.58 426.73-36.69L426.73-36.69L426.73-36.69Q429.07-35.81 429.74-33.92L429.74-33.92L429.74-33.92Q430.84-30.74 432.12-26.54L432.12-26.54L432.12-26.54Q433.40-22.33 434.69-17.84L434.69-17.84L434.69-17.84Q435.97-13.36 437.19-9.00L437.19-9.00L437.19-9.00Q438.41-4.64 439.32-1.28L439.32-1.28L439.32-1.28Q438.59-0.43 437.13 0.09L437.13 0.09L437.13 0.09Q435.66 0.61 433.65 0.61L433.65 0.61L433.65 0.61Q432.18 0.61 431.18 0.37L431.18 0.37L431.18 0.37Q430.17 0.12 429.53-0.37L429.53-0.37L429.53-0.37Q428.89-0.85 428.49-1.65L428.49-1.65L428.49-1.65Q428.10-2.44 427.79-3.48L427.79-3.48L426.69-7.69L415.65-7.69L415.65-7.69Q415.17-5.86 414.68-3.90L414.68-3.90L414.68-3.90Q414.19-1.95 413.70-0.12L413.70-0.12L413.70-0.12Q412.85 0.18 411.90 0.40L411.90 0.40L411.90 0.40Q410.96 0.61 409.61 0.61L409.61 0.61L409.61 0.61Q406.50 0.61 405.01-0.46L405.01-0.46L405.01-0.46Q403.51-1.52 403.51-3.42L403.51-3.42L403.51-3.42Q403.51-4.27 403.76-5.12L403.76-5.12L403.76-5.12Q404.00-5.98 404.31-7.14L404.31-7.14L404.31-7.14Q404.73-8.78 405.50-11.22L405.50-11.22L405.50-11.22Q406.26-13.66 407.17-16.50L407.17-16.50L407.17-16.50Q408.09-19.34 409.13-22.33L409.13-22.33L409.13-22.33Q410.16-25.31 411.08-27.97L411.08-27.97L411.08-27.97Q411.99-30.62 412.76-32.70L412.76-32.70L412.76-32.70Q413.52-34.77 413.95-35.87ZM421.63-28.00L421.27-28.00L421.27-28.00Q420.41-25.44 419.34-22.30L419.34-22.30L419.34-22.30Q418.28-19.15 417.42-15.92L417.42-15.92L424.99-15.92L424.99-15.92Q424.13-19.21 423.25-22.36L423.25-22.36L423.25-22.36Q422.36-25.50 421.63-28.00L421.63-28.00ZM454.94-29.16L454.94-7.93L454.94-7.93Q455.61-7.81 456.58-7.72L456.58-7.72L456.58-7.72Q457.56-7.63 458.41-7.63L458.41-7.63L458.41-7.63Q460.49-7.63 462.23-8.23L462.23-8.23L462.23-8.23Q463.97-8.85 465.22-10.13L465.22-10.13L465.22-10.13Q466.47-11.41 467.17-13.45L467.17-13.45L467.17-13.45Q467.87-15.49 467.87-18.36L467.87-18.36L467.87-18.36Q467.87-23.85 465.31-26.63L465.31-26.63L465.31-26.63Q462.75-29.40 458.48-29.40L458.48-29.40L458.48-29.40Q457.62-29.40 456.74-29.34L456.74-29.34L456.74-29.34Q455.85-29.28 454.94-29.16L454.94-29.16ZM458.35 0.98L458.35 0.98L458.35 0.98Q457.32 0.98 455.97 0.92L455.97 0.92L455.97 0.92Q454.63 0.85 453.20 0.67L453.20 0.67L453.20 0.67Q451.77 0.49 450.33 0.21L450.33 0.21L450.33 0.21Q448.90-0.06 447.68-0.55L447.68-0.55L447.68-0.55Q444.32-1.83 444.32-5.00L444.32-5.00L444.32-33.49L444.32-33.49Q444.32-34.77 445.03-35.47L445.03-35.47L445.03-35.47Q445.73-36.17 446.95-36.60L446.95-36.60L446.95-36.60Q449.57-37.45 452.50-37.73L452.50-37.73L452.50-37.73Q455.43-38.00 457.74-38.00L457.74-38.00L457.74-38.00Q462.50-38.00 466.38-36.84L466.38-36.84L466.38-36.84Q470.25-35.69 473.02-33.28L473.02-33.28L473.02-33.28Q475.80-30.87 477.32-27.21L477.32-27.21L477.32-27.21Q478.85-23.55 478.85-18.54L478.85-18.54L478.85-18.54Q478.85-13.66 477.39-10.03L477.39-10.03L477.39-10.03Q475.92-6.41 473.21-3.93L473.21-3.93L473.21-3.93Q470.49-1.46 466.71-0.24L466.71-0.24L466.71-0.24Q462.93 0.98 458.35 0.98ZM495.62-32.45L495.62-0.24L495.62-0.24Q494.95-0.06 493.52 0.12L493.52 0.12L493.52 0.12Q492.09 0.30 490.68 0.30L490.68 0.30L490.68 0.30Q489.28 0.30 488.21 0.09L488.21 0.09L488.21 0.09Q487.15-0.12 486.41-0.67L486.41-0.67L486.41-0.67Q485.68-1.22 485.32-2.20L485.32-2.20L485.32-2.20Q484.95-3.17 484.95-4.76L484.95-4.76L484.95-36.97L484.95-36.97Q485.62-37.09 487.08-37.30L487.08-37.30L487.08-37.30Q488.55-37.52 489.89-37.52L489.89-37.52L489.89-37.52Q491.29-37.52 492.36-37.30L492.36-37.30L492.36-37.30Q493.43-37.09 494.16-36.54L494.16-36.54L494.16-36.54Q494.89-35.99 495.26-35.01L495.26-35.01L495.26-35.01Q495.62-34.04 495.62-32.45L495.62-32.45ZM537.04-32.63L537.04-1.28L537.04-1.28Q536.19-0.43 534.57 0.03L534.57 0.03L534.57 0.03Q532.96 0.49 530.70 0.49L530.70 0.49L530.70 0.49Q528.44 0.49 526.43-0.18L526.43-0.18L526.43-0.18Q524.42-0.85 523.14-3.42L523.14-3.42L517.10-15.74L517.10-15.74Q516.18-17.63 515.45-19.31L515.45-19.31L515.45-19.31Q514.72-20.98 513.86-23.18L513.86-23.18L513.50-23.12L513.50-23.12Q513.74-19.82 513.77-16.41L513.77-16.41L513.77-16.41Q513.80-12.99 513.80-9.70L513.80-9.70L513.80-0.24L513.80-0.24Q513.13-0.06 511.76 0.12L511.76 0.12L511.76 0.12Q510.39 0.30 509.04 0.30L509.04 0.30L509.04 0.30Q507.70 0.30 506.67 0.12L506.67 0.12L506.67 0.12Q505.63-0.06 504.96-0.61L504.96-0.61L504.96-0.61Q504.29-1.16 503.92-2.10L503.92-2.10L503.92-2.10Q503.55-3.05 503.55-4.58L503.55-4.58L503.55-35.07L503.55-35.07Q504.41-36.30 506.18-36.91L506.18-36.91L506.18-36.91Q507.95-37.52 509.96-37.52L509.96-37.52L509.96-37.52Q512.22-37.52 514.26-36.81L514.26-36.81L514.26-36.81Q516.30-36.11 517.52-33.61L517.52-33.61L523.62-21.29L523.62-21.29Q524.54-19.40 525.27-17.72L525.27-17.72L525.27-17.72Q526.00-16.04 526.86-13.85L526.86-13.85L527.16-13.91L527.16-13.91Q526.92-17.20 526.86-20.50L526.86-20.50L526.86-20.50Q526.80-23.79 526.80-27.08L526.80-27.08L526.80-36.97L526.80-36.97Q527.47-37.15 528.84-37.33L528.84-37.33L528.84-37.33Q530.21-37.52 531.55-37.52L531.55-37.52L531.55-37.52Q534.24-37.52 535.64-36.57L535.64-36.57L535.64-36.57Q537.04-35.62 537.04-32.63L537.04-32.63ZM578.46-18.48L578.46-6.04L578.46-6.04Q578.46-4.15 577.79-3.23L577.79-3.23L577.79-3.23Q577.12-2.32 575.66-1.46L575.66-1.46L575.66-1.46Q574.80-0.98 573.52-0.52L573.52-0.52L573.52-0.52Q572.24-0.06 570.72 0.27L570.72 0.27L570.72 0.27Q569.19 0.61 567.51 0.79L567.51 0.79L567.51 0.79Q565.84 0.98 564.19 0.98L564.19 0.98L564.19 0.98Q559.80 0.98 555.95-0.21L555.95-0.21L555.95-0.21Q552.11-1.40 549.27-3.81L549.27-3.81L549.27-3.81Q546.44-6.22 544.79-9.82L544.79-9.82L544.79-9.82Q543.14-13.42 543.14-18.18L543.14-18.18L543.14-18.18Q543.14-23.18 544.94-26.90L544.94-26.90L544.94-26.90Q546.74-30.62 549.70-33.09L549.70-33.09L549.70-33.09Q552.66-35.56 556.47-36.78L556.47-36.78L556.47-36.78Q560.28-38.00 564.31-38.00L564.31-38.00L564.31-38.00Q570.11-38.00 573.49-36.14L573.49-36.14L573.49-36.14Q576.88-34.28 576.88-31.29L576.88-31.29L576.88-31.29Q576.88-29.71 576.08-28.55L576.08-28.55L576.08-28.55Q575.29-27.39 574.25-26.72L574.25-26.72L574.25-26.72Q572.73-27.63 570.44-28.52L570.44-28.52L570.44-28.52Q568.15-29.40 565.29-29.40L565.29-29.40L565.29-29.40Q560.16-29.40 557.14-26.47L557.14-26.47L557.14-26.47Q554.12-23.55 554.12-18.36L554.12-18.36L554.12-18.36Q554.12-15.55 554.95-13.51L554.95-13.51L554.95-13.51Q555.77-11.47 557.17-10.16L557.17-10.16L557.17-10.16Q558.58-8.85 560.41-8.20L560.41-8.20L560.41-8.20Q562.24-7.56 564.31-7.56L564.31-7.56L564.31-7.56Q565.65-7.56 566.69-7.81L566.69-7.81L566.69-7.81Q567.73-8.05 568.28-8.36L568.28-8.36L568.28-14.09L561.75-14.09L561.75-14.09Q561.38-14.76 561.05-15.86L561.05-15.86L561.05-15.86Q560.71-16.96 560.71-18.18L560.71-18.18L560.71-18.18Q560.71-20.37 561.72-21.35L561.72-21.35L561.72-21.35Q562.73-22.33 564.31-22.33L564.31-22.33L574.62-22.33L574.62-22.33Q576.45-22.33 577.46-21.32L577.46-21.32L577.46-21.32Q578.46-20.31 578.46-18.48L578.46-18.48Z"></path></g></g><style>text {
  font-size: 64px;
  font-family: Arial Black;
  dominant-baseline: central;
  text-anchor: middle;
}</style></svg>